<svg width="100" height="100" viewBox="0 0 100 100" fill="none" xmlns="http://www.w3.org/2000/svg"><path fill-rule="evenodd" clip-rule="evenodd" d="M6.246 21.863c0 5.177 70.176 59.351 71.901 59.351h3.127c3.292.011 6.461-1.3 8.843-3.659a12.286 12.286 0 0 0 2.7-4.03 12.67 12.67 0 0 0 .963-4.806V24.987c0-6.902-5.6-12.495-12.506-12.495H15.625c-5.178 0-9.379 4.195-9.379 9.371Z" fill="#FFA81C"/><path fill-rule="evenodd" clip-rule="evenodd" d="M75.018 15.625a9.375 9.375 0 0 0-9.376-9.375H31.259c-5.176 0-9.377 4.197-9.377 9.375v12.5c0 1.725 1.4 3.125 3.127 3.125h46.886c1.727 0 3.123-1.4 3.123-3.125v-12.5Z" fill="#FDBE59"/><path fill-rule="evenodd" clip-rule="evenodd" d="M6.251 21.868V81.22c0 6.902 5.6 12.495 12.506 12.495h56.27c6.906 0 12.505-5.593 12.505-12.495V37.487c0-6.902-5.6-12.495-12.505-12.495H15.63a3.124 3.124 0 0 1-3.127-3.124c0-1.69-1.401-3.124-3.126-3.124a3.126 3.126 0 0 0-3.127 3.124Z" fill="url(#a)"/><path fill-rule="evenodd" clip-rule="evenodd" d="M68.75 78.125a9.375 9.375 0 0 0 9.375-9.375v-12.5a9.372 9.372 0 0 0-9.375-9.375h-12.5A15.631 15.631 0 0 0 40.625 62.5 15.625 15.625 0 0 0 56.25 78.125h12.5Z" fill="#000" fill-opacity=".1"/><path fill-rule="evenodd" clip-rule="evenodd" d="M71.875 75a9.375 9.375 0 0 0 9.375-9.375v-12.5a9.372 9.372 0 0 0-9.375-9.375h-12.5A15.631 15.631 0 0 0 43.75 59.375 15.625 15.625 0 0 0 59.375 75h12.5Z" fill="url(#b)"/><path fill-rule="evenodd" clip-rule="evenodd" d="M62.175 62.447a6.25 6.25 0 0 1-6.25 6.247 6.25 6.25 0 0 1 .003-12.497 6.25 6.25 0 0 1 6.247 6.25Z" fill="#000" fill-opacity=".1"/><path fill-rule="evenodd" clip-rule="evenodd" d="M65.3 59.32a6.248 6.248 0 1 1-12.497 0 6.248 6.248 0 0 1 12.497 0Z" fill="url(#c)"/><defs><linearGradient id="a" x1="21.883" y1="90.591" x2="71.86" y2="34.325" gradientUnits="userSpaceOnUse"><stop stop-color="#FFAB21"/><stop offset="1" stop-color="#FBDE30"/></linearGradient><linearGradient id="b" x1="75" y1="46.875" x2="53.125" y2="75" gradientUnits="userSpaceOnUse"><stop stop-color="#FFF3E0"/><stop offset="1" stop-color="#FFB742"/></linearGradient><linearGradient id="c" x1="59.052" y1="65.569" x2="62.176" y2="53.072" gradientUnits="userSpaceOnUse"><stop stop-color="#FF3B5B"/><stop offset="1" stop-color="#FF8860"/></linearGradient></defs></svg>
