<svg width="167" height="40" viewBox="0 0 167 40" fill="none" xmlns="http://www.w3.org/2000/svg"><path d="M53.02 32.865v-.57l13.6-20.34H53.98V8.06h20.627v.586L61.084 28.955h13.197v3.91h-21.26Zm24.219 0V8.061h17.813v3.893H81.855v6.116h10.899v3.893H81.855v7.012h13.197v3.894H77.24v-.004Zm20.878 0V8.061h17.813v3.893h-13.197v6.116h10.898v3.893h-10.898v7.012h13.197v3.894H98.116v-.004Zm20.877 0V8.061h10.935c1.865 0 3.394.336 4.587 1.005 1.192.673 2.082 1.53 2.661 2.575.58 1.046.873 2.125.873 3.238 0 1.365-.36 2.525-1.083 3.48-.723.953-1.702 1.596-2.941 1.929v-.863c1.735.357 3.054 1.096 3.957 2.222a5.987 5.987 0 0 1 1.349 3.84c0 1.436-.313 2.758-.939 3.858-.626 1.102-1.556 1.965-2.788 2.584-1.232.62-2.755.93-4.567.93h-12.047l.003.006Zm4.673-14.899h6.206c.662 0 1.259-.113 1.782-.343a2.88 2.88 0 0 0 1.245-1.015c.307-.447.46-1 .46-1.653 0-.862-.306-1.578-.919-2.151-.613-.573-1.469-.863-2.568-.863h-6.206v6.029-.003Zm0 10.989h6.798c.807 0 1.526-.147 2.165-.44.64-.293 1.14-.706 1.503-1.239.363-.533.546-1.169.546-1.902 0-.666-.16-1.262-.48-1.792-.319-.526-.786-.949-1.399-1.265-.613-.317-1.345-.474-2.201-.474h-6.935v7.115l.003-.003Zm29.508 4.427c-2.195 0-4.127-.404-5.792-1.206-1.666-.803-2.968-1.935-3.907-3.394-.94-1.46-1.409-3.168-1.409-5.133V8.097l4.673-.033v15.485c0 .93.176 1.762.526 2.498.35.736.826 1.359 1.426 1.869a6.184 6.184 0 0 0 2.068 1.162c.78.263 1.582.396 2.415.396s1.669-.136 2.442-.406a6.354 6.354 0 0 0 2.058-1.172 5.472 5.472 0 0 0 1.419-1.869c.343-.736.516-1.562.516-2.481V8.06h4.673v15.588c0 1.965-.469 3.674-1.408 5.133-.94 1.459-2.242 2.588-3.908 3.394-1.665.802-3.597 1.206-5.792 1.206Z" fill="#2A44FF"/><path d="m39.244 9.507-3.57-6.172L21.24 28.333l9.64.01 8.366-14.546a4.29 4.29 0 0 0-.003-4.293v.003Z" fill="url(#a)"/><path d="m35.673 3.338-26.756-.01A3.603 3.603 0 0 0 5.796 5.13L3.26 9.52a4.291 4.291 0 0 0 0 4.29l3.564 6.196 4.793-8.33h19.239" fill="url(#b)"/><path d="m3.268 30.491 3.57 6.172 14.43-24.991H11.62L3.264 26.198a4.29 4.29 0 0 0 .004 4.293Z" fill="url(#c)"/><path d="m6.838 36.663 26.757.01a3.603 3.603 0 0 0 3.12-1.802l2.535-4.39a4.291 4.291 0 0 0 0-4.29l-3.57-6.185-4.8 8.34-19.229-.02" fill="url(#d)"/><defs><linearGradient id="a" x1="44.224" y1="4.894" x2="23.313" y2="25.808" gradientUnits="userSpaceOnUse"><stop stop-color="#F6A23A"/><stop offset=".92" stop-color="#F15729"/><stop offset="1" stop-color="#F15729"/></linearGradient><linearGradient id="b" x1="-4.677" y1="13.397" x2="42.701" y2="6.796" gradientUnits="userSpaceOnUse"><stop stop-color="#fff"/><stop offset=".04" stop-color="#FCFEFF"/><stop offset=".06" stop-color="#F2FDFF"/><stop offset=".08" stop-color="#E2FCFF"/><stop offset=".1" stop-color="#CCF9FF"/><stop offset=".12" stop-color="#AEF6FF"/><stop offset=".13" stop-color="#8BF3FF"/><stop offset=".15" stop-color="#60EEFF"/><stop offset=".16" stop-color="#30E9FF"/><stop offset=".18" stop-color="#00E5FF"/><stop offset=".83" stop-color="#2A44FF"/></linearGradient><linearGradient id="c" x1="-5.966" y1="39.361" x2="28.345" y2="5.054" gradientUnits="userSpaceOnUse"><stop stop-color="#F6A23A"/><stop offset=".92" stop-color="#F15729"/><stop offset="1" stop-color="#F15729"/></linearGradient><linearGradient id="d" x1="45.799" y1="28.813" x2="-.543" y2="27.907" gradientUnits="userSpaceOnUse"><stop stop-color="#fff"/><stop offset=".04" stop-color="#FCFEFF"/><stop offset=".06" stop-color="#F2FDFF"/><stop offset=".08" stop-color="#E2FCFF"/><stop offset=".1" stop-color="#CCF9FF"/><stop offset=".12" stop-color="#AEF6FF"/><stop offset=".13" stop-color="#8BF3FF"/><stop offset=".15" stop-color="#60EEFF"/><stop offset=".16" stop-color="#30E9FF"/><stop offset=".18" stop-color="#00E5FF"/><stop offset=".83" stop-color="#2A44FF"/></linearGradient></defs></svg>
