<svg width="43" height="40" viewBox="0 0 43 40" fill="none" xmlns="http://www.w3.org/2000/svg"><path d="m39.08 9.506-3.57-6.172-14.432 24.998 9.639.01 8.367-14.546a4.29 4.29 0 0 0-.003-4.293v.003Z" fill="url(#a)"/><path d="m35.51 3.337-26.757-.01a3.603 3.603 0 0 0-3.12 1.802L3.097 9.52a4.291 4.291 0 0 0 0 4.29l3.564 6.196 4.793-8.33h19.239" fill="url(#b)"/><path d="m3.104 30.49 3.571 6.172 14.426-24.991h-9.646L3.098 26.197A4.29 4.29 0 0 0 3.1 30.49h.003Z" fill="url(#c)"/><path d="m6.675 36.662 26.757.01a3.603 3.603 0 0 0 3.12-1.802l2.535-4.39a4.292 4.292 0 0 0 0-4.29l-3.57-6.185-4.8 8.34-19.229-.02" fill="url(#d)"/><defs><linearGradient id="a" x1="44.06" y1="4.893" x2="23.146" y2="25.807" gradientUnits="userSpaceOnUse"><stop stop-color="#F6A23A"/><stop offset=".92" stop-color="#F15729"/><stop offset="1" stop-color="#F15729"/></linearGradient><linearGradient id="b" x1="-4.843" y1="13.396" x2="42.535" y2="6.795" gradientUnits="userSpaceOnUse"><stop stop-color="#fff"/><stop offset=".04" stop-color="#FCFEFF"/><stop offset=".06" stop-color="#F2FDFF"/><stop offset=".08" stop-color="#E2FCFF"/><stop offset=".1" stop-color="#CCF9FF"/><stop offset=".12" stop-color="#AEF6FF"/><stop offset=".13" stop-color="#8BF3FF"/><stop offset=".15" stop-color="#60EEFF"/><stop offset=".16" stop-color="#30E9FF"/><stop offset=".18" stop-color="#00E5FF"/><stop offset=".83" stop-color="#2A44FF"/></linearGradient><linearGradient id="c" x1="-6.129" y1="39.36" x2="28.179" y2="5.053" gradientUnits="userSpaceOnUse"><stop stop-color="#F6A23A"/><stop offset=".92" stop-color="#F15729"/><stop offset="1" stop-color="#F15729"/></linearGradient><linearGradient id="d" x1="45.636" y1="28.812" x2="-.706" y2="27.906" gradientUnits="userSpaceOnUse"><stop stop-color="#fff"/><stop offset=".04" stop-color="#FCFEFF"/><stop offset=".06" stop-color="#F2FDFF"/><stop offset=".08" stop-color="#E2FCFF"/><stop offset=".1" stop-color="#CCF9FF"/><stop offset=".12" stop-color="#AEF6FF"/><stop offset=".13" stop-color="#8BF3FF"/><stop offset=".15" stop-color="#60EEFF"/><stop offset=".16" stop-color="#30E9FF"/><stop offset=".18" stop-color="#00E5FF"/><stop offset=".83" stop-color="#2A44FF"/></linearGradient></defs></svg>
