<svg width="30" height="30" viewBox="0 0 30 30" fill="none" xmlns="http://www.w3.org/2000/svg"><g clip-path="url(#a)"><path d="M15 30c8.284 0 15-6.716 15-15 0-8.284-6.716-15-15-15C6.716 0 0 6.716 0 15c0 8.284 6.716 15 15 15Z" fill="#fff"/><path d="m23.441 6.328-7.316 5.434 1.353-3.206 5.963-2.228Z" fill="#E2761B" stroke="#E2761B" stroke-width=".234" stroke-linecap="round" stroke-linejoin="round"/><path d="m6.552 6.328 7.257 5.485-1.287-3.257-5.97-2.228Zm14.257 12.596-1.949 2.985 4.17 1.147 1.198-4.066-3.42-.066ZM5.78 18.99l1.19 4.066 4.17-1.147-1.949-2.985-3.412.066Z" fill="#E4761B" stroke="#E4761B" stroke-width=".234" stroke-linecap="round" stroke-linejoin="round"/><path d="m10.904 13.88-1.161 1.757 4.14.184-.148-4.449-2.83 2.508Zm8.184 0-2.867-2.56-.096 4.5 4.132-.183-1.169-1.757Zm-7.948 8.029 2.485-1.213-2.147-1.677-.338 2.89Zm5.228-1.213 2.492 1.213-.345-2.89-2.147 1.677Z" fill="#E4761B" stroke="#E4761B" stroke-width=".234" stroke-linecap="round" stroke-linejoin="round"/><path d="m18.86 21.909-2.492-1.213.198 1.625-.022.684 2.316-1.096Zm-7.72 0 2.316 1.096-.015-.684.184-1.625-2.485 1.213Z" fill="#D7C1B3" stroke="#D7C1B3" stroke-width=".234" stroke-linecap="round" stroke-linejoin="round"/><path d="m13.492 17.946-2.073-.61 1.463-.67.61 1.28Zm3.008 0 .61-1.28 1.47.67-2.08.61Z" fill="#233447" stroke="#233447" stroke-width=".234" stroke-linecap="round" stroke-linejoin="round"/><path d="m11.14 21.909.353-2.985-2.302.066 1.949 2.919Zm7.367-2.985.353 2.985 1.949-2.92-2.302-.065Zm1.75-3.287-4.132.184.382 2.125.61-1.28 1.471.67 1.67-1.7Zm-8.837 1.698 1.47-.669.603 1.28.39-2.125-4.14-.184 1.676 1.698Z" fill="#CD6116" stroke="#CD6116" stroke-width=".234" stroke-linecap="round" stroke-linejoin="round"/><path d="m9.743 15.637 1.736 3.382-.06-1.683-1.676-1.7Zm8.846 1.698-.074 1.684 1.743-3.382-1.67 1.698Zm-4.706-1.515-.39 2.126.486 2.507.11-3.301-.206-1.331Zm2.242 0-.198 1.324.088 3.31.493-2.508-.383-2.125Z" fill="#E4751F" stroke="#E4751F" stroke-width=".234" stroke-linecap="round" stroke-linejoin="round"/><path d="m16.507 17.946-.492 2.507.353.243 2.147-1.677.073-1.683-2.08.61Zm-5.088-.611.059 1.684 2.147 1.677.353-.243-.486-2.507-2.073-.61Z" fill="#F6851B" stroke="#F6851B" stroke-width=".234" stroke-linecap="round" stroke-linejoin="round"/><path d="m16.544 23.005.022-.684-.184-.162H13.61l-.169.162.015.684-2.316-1.096.808.662 1.64 1.14h2.816l1.647-1.14.81-.662-2.317 1.096Z" fill="#C0AD9E" stroke="#C0AD9E" stroke-width=".234" stroke-linecap="round" stroke-linejoin="round"/><path d="m16.367 20.696-.353-.243h-2.036l-.353.243-.184 1.625.169-.162h2.772l.184.162-.199-1.625Z" fill="#161616" stroke="#161616" stroke-width=".234" stroke-linecap="round" stroke-linejoin="round"/><path d="m23.75 12.115.625-3-.934-2.787-7.073 5.25 2.72 2.302 3.846 1.125.853-.993-.368-.265.588-.537-.456-.353.589-.448-.39-.294Zm-18.125-3 .625 3-.397.294.588.448-.448.354.588.536-.368.265.846.993 3.845-1.125 2.721-2.302-7.074-5.25-.926 2.787Z" fill="#763D16" stroke="#763D16" stroke-width=".234" stroke-linecap="round" stroke-linejoin="round"/><path d="m22.934 15.005-3.846-1.125 1.17 1.757-1.743 3.382 2.294-.03h3.419l-1.294-3.984Zm-12.03-1.125L7.06 15.005 5.78 18.99h3.412l2.287.03-1.735-3.383 1.161-1.757Zm5.221 1.94.243-4.242 1.117-3.022h-4.963l1.103 3.022.257 4.243.088 1.338.008 3.294h2.037l.014-3.294.096-1.338Z" fill="#F6851B" stroke="#F6851B" stroke-width=".234" stroke-linecap="round" stroke-linejoin="round"/></g><defs><clipPath id="a"><rect width="30" height="30" rx="5.625" fill="#fff"/></clipPath></defs></svg>
